<svg width="613" height="84" viewBox="0 0 613 84" fill="none" xmlns="http://www.w3.org/2000/svg">
<path d="M29.1 68C11.3 68 1.8 61.1 1.8 49.5V49.1H20.6V50.1C20.6 52.9 22.4 53.2 29.2 53.2C35.7 53.2 36.7 52.5 36.7 50.8C36.7 49.2 35.9 48.8 31.2 48.3L16.6 46.7C6.2 45.6 0.6 40.7 0.6 32.2C0.6 23.3 7.7 15.6 26.6 15.6C44.1 15.6 53.4 21.9 53.4 34.3V34.7H34.6V34.1C34.6 31.5 33.6 30.3 26 30.3C19.9 30.3 19.1 31.1 19.1 33C19.1 34.4 19.9 35.1 25.8 35.7L35.8 36.8C50.5 38.4 55.2 43.3 55.2 51.8C55.2 61.2 45.8 68 29.1 68ZM76.0148 68C64.6148 68 58.2148 62.8 58.2148 54.2C58.2148 47.1 63.1148 42 74.5148 40.9L95.0148 38.9V37.9C95.0148 32.8 92.8148 32 86.1148 32C79.9148 32 78.0148 33.2 78.0148 37.4V37.8H59.2148V37.6C59.2148 24.2 70.4148 15.6 87.5148 15.6C105.115 15.6 113.615 24.2 113.615 38.3V67H96.0148V56.4H95.0148C93.1148 63.5 86.9148 68 76.0148 68ZM77.1148 53C77.1148 54.6 78.7148 54.9 81.6148 54.9C90.7148 54.9 94.4148 53.8 94.9148 49.3L79.5148 51.1C77.8148 51.3 77.1148 51.9 77.1148 53ZM141.288 68C126.488 68 118.188 58.2 118.188 41.8C118.188 25.5 126.688 15.6 142.088 15.6C153.888 15.6 159.888 20.2 161.488 30.2H162.488V16.6H180.088V84H161.288V54H160.288C158.788 62.4 153.188 68 141.288 68ZM137.188 41.8C137.188 48.5 140.188 50.9 148.888 50.9C157.288 50.9 161.288 49.5 161.288 42.4V41.7C161.288 34.4 157.288 32.8 148.888 32.8C140.188 32.8 137.188 35.1 137.188 41.8ZM204.882 12H186.082V-1.66893e-06H204.882V12ZM204.882 67H186.082V16.6H204.882V67ZM228.487 67H210.887V-1.66893e-06H229.687V29.6H230.687C232.187 21.2 237.787 15.6 249.687 15.6C264.487 15.6 272.787 25.4 272.787 41.8C272.787 58.1 264.287 68 248.887 68C237.087 68 231.087 63.4 229.487 53.4H228.487V67ZM229.687 41.9C229.687 49.2 233.687 50.8 242.087 50.8C250.787 50.8 253.787 48.5 253.787 41.8C253.787 35.1 250.787 32.7 242.087 32.7C233.687 32.7 229.687 34.1 229.687 41.2V41.9ZM302.181 67H277.781V47.8H302.181V67ZM336.452 68C318.552 68 307.152 58.1 307.152 41.8C307.152 25.4 318.552 15.6 336.452 15.6C353.652 15.6 364.652 24.4 364.652 37.9V39.5H345.952V38.7C345.952 33.5 342.152 32.4 336.052 32.4C329.152 32.4 325.852 33.9 325.852 41.8C325.852 49.6 329.152 51.1 336.052 51.1C342.152 51.1 345.952 50.1 345.952 44.9V44H364.652V45.7C364.652 59.1 353.652 68 336.452 68ZM397.576 68C380.076 68 368.176 58.1 368.176 41.8C368.176 25.4 380.076 15.6 397.576 15.6C415.076 15.6 426.976 25.4 426.976 41.8C426.976 58.1 415.076 68 397.576 68ZM397.576 51.4C406.076 51.4 408.376 49.1 408.376 41.8C408.376 34.5 406.076 32.1 397.576 32.1C389.076 32.1 386.776 34.5 386.776 41.8C386.776 49.1 389.076 51.4 397.576 51.4ZM454.392 68C438.992 68 430.492 58.1 430.492 41.8C430.492 25.4 438.792 15.6 453.592 15.6C465.492 15.6 471.092 21.2 472.592 29.6H473.592V-1.66893e-06H492.392V67H474.792V53.4H473.792C472.192 63.4 466.192 68 454.392 68ZM449.492 41.8C449.492 48.5 452.492 50.8 461.192 50.8C469.592 50.8 473.592 49.2 473.592 41.9V41.2C473.592 34.1 469.592 32.7 461.192 32.7C452.492 32.7 449.492 35.1 449.492 41.8ZM526.487 68C509.387 68 497.387 60.7 497.387 41.8C497.387 25.4 509.287 15.6 526.087 15.6C543.487 15.6 554.587 24.3 554.587 40.5C554.587 42.2 554.487 43.5 554.287 45.3H514.787C515.087 51.4 517.787 53.1 525.787 53.1C533.387 53.1 535.387 51.8 535.387 48.8V47.7H554.187V48.9C554.187 60.1 543.487 68 526.487 68ZM525.687 30C518.787 30 515.887 31.5 515.087 35.8H536.387C535.687 31.5 532.687 30 525.687 30ZM586.717 68C568.917 68 559.417 61.1 559.417 49.5V49.1H578.217V50.1C578.217 52.9 580.017 53.2 586.817 53.2C593.317 53.2 594.317 52.5 594.317 50.8C594.317 49.2 593.517 48.8 588.817 48.3L574.217 46.7C563.817 45.6 558.217 40.7 558.217 32.2C558.217 23.3 565.317 15.6 584.217 15.6C601.717 15.6 611.017 21.9 611.017 34.3V34.7H592.217V34.1C592.217 31.5 591.217 30.3 583.617 30.3C577.517 30.3 576.717 31.1 576.717 33C576.717 34.4 577.517 35.1 583.417 35.7L593.417 36.8C608.117 38.4 612.817 43.3 612.817 51.8C612.817 61.2 603.417 68 586.717 68Z" fill="white"/>
</svg>
